<svg version="1.1" xmlns="http://www.w3.org/2000/svg" xmlns:xlink="http://www.w3.org/1999/xlink" width="307" height="307" viewBox="0,0,307,307"><g transform="translate(-86.5,-26.5)"><g data-paper-data="{&quot;isPaintingLayer&quot;:true}" fill-rule="nonzero" stroke-linejoin="miter" stroke-miterlimit="10" stroke-dasharray="" stroke-dashoffset="0" style="mix-blend-mode: normal"><path d="M86.5,333.5v-307h307v307z" fill="#000000" stroke="none" stroke-width="0" stroke-linecap="butt"/><path d="M117.60119,193.34369c-7.36951,-67.599 41.45614,-128.37299 109.05513,-135.7425c67.599,-7.36951 128.37299,41.45614 135.74249,109.05513c7.36951,67.599 -41.45614,128.37299 -109.05513,135.74249c-67.599,7.36951 -128.37299,-41.45614 -135.7425,-109.05513z" fill="#dbe9ff" stroke="#388ae8" stroke-width="12.5" stroke-linecap="butt"/><path d="M239.97124,180.04628l-37.59736,-74.85563" fill="none" stroke="#3c98ff" stroke-width="20" stroke-linecap="round"/><path d="M240.04387,179.92612l15.89455,80.05897" fill="none" stroke="#3c98ff" stroke-width="25" stroke-linecap="round"/><path d="M221.44951,180.00001c0,-10.24516 8.30535,-18.55051 18.55051,-18.55051c10.24516,0 18.55051,8.30535 18.55051,18.55051c0,10.24516 -8.30535,18.55051 -18.55051,18.55051c-10.24516,0 -18.55051,-8.30535 -18.55051,-18.55051z" fill="#388ae8" stroke="#388ae8" stroke-width="0" stroke-linecap="butt"/></g></g></svg>